<svg width="60" height="60" viewBox="0 0 60 60" fill="none" xmlns="http://www.w3.org/2000/svg">
<path d="M27.6113 35.3887C27.6296 33.3054 27.8494 31.7939 28.2708 30.8542C28.6922 29.9144 29.5186 28.889 30.75 27.7779C31.9075 26.7407 32.794 25.7985 33.4096 24.9513C34.0254 24.104 34.3333 23.1804 34.3333 22.1804C34.3333 20.9676 33.9282 19.9585 33.1179 19.1529C32.3079 18.3474 31.176 17.9446 29.7221 17.9446C28.2871 17.9446 27.1876 18.3612 26.4238 19.1946C25.6599 20.0279 25.1065 20.889 24.7637 21.7779L21 20.1388C21.6019 18.4538 22.6482 17.0093 24.1387 15.8054C25.6296 14.6018 27.4907 14 29.7221 14C32.5462 14 34.7199 14.7847 36.2429 16.3542C37.7663 17.9236 38.5279 19.8101 38.5279 22.0138C38.5279 23.3657 38.2385 24.5671 37.6596 25.6179C37.081 26.669 36.1621 27.801 34.9029 29.0137C33.5418 30.3193 32.72 31.3171 32.4375 32.0071C32.155 32.6968 32.0046 33.824 31.9862 35.3887H27.6113ZM29.7221 45.6667C28.8796 45.6667 28.1597 45.3681 27.5625 44.7708C26.9653 44.1736 26.6667 43.4538 26.6667 42.6113C26.6667 41.7685 26.9653 41.0485 27.5625 40.4513C28.1597 39.854 28.8796 39.5554 29.7221 39.5554C30.5649 39.5554 31.2849 39.854 31.8821 40.4513C32.4793 41.0485 32.7779 41.7685 32.7779 42.6113C32.7779 43.4538 32.4793 44.1736 31.8821 44.7708C31.2849 45.3681 30.5649 45.6667 29.7221 45.6667Z" fill="#999999"/>
<circle cx="30" cy="30" r="28.5" stroke="#999999" stroke-width="3" stroke-linejoin="round" stroke-dasharray="6 6"/>
</svg>
